<svg xmlns="http://www.w3.org/2000/svg" xmlns:xlink="http://www.w3.org/1999/xlink" width="132px" height="16px" viewBox="0 0 132 16" version="1.1">
    <!-- Generator: Sketch 42 (36781) - http://www.bohemiancoding.com/sketch -->
    <title>Group Copy 6</title>
    <desc>Created with Sketch.</desc>
    <defs/>
    <g id="Starting" stroke="none" stroke-width="1" fill="none" fill-rule="evenodd">
        <g id="mens_main" transform="translate(-40.000000, -40.000000)" fill="#232024">
            <g id="Group-Copy-6" transform="translate(40.000000, 40.000000)">
                <polygon id="Path-Copy" points="132 0.393442623 125.60076 0.393442623 122.338403 6.95081967 118.95057 0.393442623 111.798479 0.393442623 118.825095 11.0163934 118.825095 15.6065574 124.973384 15.6065574 124.973384 11.0163934"/>
                <polygon id="Path-Copy-2" points="110.794677 15.6065574 110.794677 12.4590164 102.889734 12.4590164 102.889734 9.57377049 110.1673 9.57377049 110.1673 6.42622951 102.889734 6.42622951 102.889734 3.54098361 110.669202 3.54098361 110.669202 0.393442623 96.8669202 0.393442623 96.8669202 15.6065574"/>
                <path d="M94.8593156,11.0163934 C94.8593156,8.29473684 92.8649492,7.43157895 90.0912548,6.68852459 L86.2015209,5.7704918 C84.6054523,5.41052632 83.8399379,5.15789474 83.8174905,4.19672131 C83.8399379,3.26315789 84.7263229,2.82105263 86.0760456,2.8852459 C87.4459134,2.82105263 88.2920082,3.30526316 88.460076,4.85245902 L94.3574144,4.85245902 C94.1542366,1.70526316 92.11958,0 86.0760456,0 C80.5764293,0 77.534517,1.93684211 77.5437262,4.85245902 C77.534517,7.32631579 79.2065616,8.10526316 81.9353612,8.78688525 L86.2015209,9.96721311 C87.9092511,10.4210526 88.4934594,10.9263158 88.460076,11.6721311 C88.4934594,12.9052632 87.2646074,13.1789474 85.9505703,13.1147541 C84.2831304,13.1789474 83.5780514,12.3578947 83.4410646,10.8852459 L77.2927757,10.8852459 C77.2927757,13.6 78.582063,16 85.9505703,16 C92.6232079,16 94.8593156,13.9368421 94.8593156,11.0163934 Z" id="Path-Copy-3"/>
                <path d="M76.2889734,11.0163934 C76.2889734,8.29473684 74.294607,7.43157895 71.5209125,6.68852459 L67.6311787,5.7704918 C66.0351101,5.41052632 65.2695957,5.15789474 65.2471483,4.19672131 C65.2695957,3.26315789 66.1559807,2.82105263 67.5057034,2.8852459 C68.8755712,2.82105263 69.721666,3.30526316 69.8897338,4.85245902 L75.7870722,4.85245902 C75.5838944,1.70526316 73.5492378,0 67.5057034,0 C62.0060871,0 58.9641748,1.93684211 58.973384,4.85245902 C58.9641748,7.32631579 60.6362193,8.10526316 63.365019,8.78688525 L67.6311787,9.96721311 C69.3389088,10.4210526 69.9231172,10.9263158 69.8897338,11.6721311 C69.9231172,12.9052632 68.6942652,13.1789474 67.3802281,13.1147541 C65.7127882,13.1789474 65.0077092,12.3578947 64.8707224,10.8852459 L58.7224335,10.8852459 C58.7224335,13.6 60.0117208,16 67.3802281,16 C74.0528657,16 76.2889734,13.9368421 76.2889734,11.0163934 Z" id="Path-Copy-4"/>
                <polygon id="Path-Copy-5" points="59.2243346 0.393442623 52.8250951 0.393442623 49.5627376 6.95081967 46.1749049 0.393442623 39.0228137 0.393442623 46.0494297 11.0163934 46.0494297 15.6065574 52.1977186 15.6065574 52.1977186 11.0163934"/>
                <path d="M40.026616,8 C40.026616,14.1316017 35.9712548,15.6065574 29.486692,15.6065574 L21.4562738,15.6065574 L21.4562738,0.393442623 L29.2357414,0.393442623 C34.5257795,0.393442623 40.026616,1.0677081 40.026616,8 Z M33.7528517,8.13114754 C33.7528517,4.90596199 32.0305297,3.80327869 29.3612167,3.80327869 L27.6045627,3.80327869 L27.6045627,12.3278689 L29.3612167,12.3278689 C32.1506917,12.3278689 33.7528517,11.1827747 33.7528517,8.13114754 Z" id="Combined-Shape-Copy"/>
                <path d="M19.4486692,8 C19.4486692,13.9368421 14.8583001,16 9.66159696,16 C2.45625015,16 0,12.7157895 0,8 C0,1.93684211 4.50983634,0 9.66159696,0 C16.8313535,0 19.4486692,3.34736842 19.4486692,8 Z M13.3003802,8.13114754 C13.3003802,4.74307004 11.8381942,3.40983607 9.78707224,3.40983607 C7.77656652,3.40983607 6.27376426,4.84888227 6.27376426,8.13114754 C6.27376426,11.1976155 7.57348513,12.7213115 9.78707224,12.7213115 C11.9194268,12.7213115 13.3003802,11.3245902 13.3003802,8.13114754 Z" id="Combined-Shape-Copy-2"/>
            </g>
        </g>
    </g>
</svg>